<svg xmlns="http://www.w3.org/2000/svg" xmlns:xlink="http://www.w3.org/1999/xlink" width="21.93878173828125" height="21.774185180664062" viewBox="0 0 21.93878173828125 21.774185180664062" fill="none">
    <path d="M5.48469 7.25806L5.48561 15.8262C5.48561 16.6074 6.12183 17.2379 6.90889 17.2379L7.31292 17.2379L7.31292 20.4514C7.31292 21.1808 7.9592 21.7742 8.69324 21.7742C9.43002 21.7742 10.0553 21.1808 10.0553 20.4505L10.0553 17.2379L11.8835 17.2379L11.8835 20.4514C11.8835 21.1808 12.5298 21.7742 13.2647 21.7742C14.0015 21.7742 14.6258 21.1808 14.6258 20.4505L14.6258 17.2379L15.0317 17.237C15.816 17.237 16.4541 16.6055 16.4541 15.8244L16.4541 7.25806L5.48469 7.25806ZM20.1105 8.59264C20.1105 7.8623 19.4752 7.25806 18.7394 7.25806C18.0035 7.25716 17.3682 7.8632 17.3682 8.59355L17.3682 14.1333C17.3682 14.8645 18.0026 15.4234 18.7394 15.4234C19.4752 15.4234 20.1105 14.8654 20.1105 14.1333L20.1105 8.59264ZM4.57058 8.59264C4.57058 7.8623 3.93527 7.25806 3.1994 7.25806C2.46354 7.25716 1.82823 7.8632 1.82823 8.59355L1.82823 14.1333C1.82823 14.8645 2.46263 15.4234 3.1994 15.4234C3.93527 15.4234 4.57058 14.8654 4.57058 14.1333L4.57058 8.59264ZM13.6669 1.95877L14.5262 0.272177C14.5884 0.152419 14.5088 3.3798e-08 14.3772 3.3798e-08C14.3169 3.3798e-08 14.2584 0.0344758 14.2273 0.0952621L13.3598 1.79909C11.9603 1.13044 10.1202 1.0624 8.57989 1.79909L7.71148 0.0952621C7.68131 0.0344758 7.62281 0 7.56156 0C7.42993 0 7.3504 0.152419 7.41256 0.272177L8.27183 1.95877C6.58529 2.89687 5.48469 4.30312 5.48469 6.3499L16.4541 6.3499C16.4541 4.30312 15.3535 2.89687 13.6669 1.95877ZM8.68501 4.53629C8.43272 4.53629 8.22704 4.33306 8.22704 4.08266C8.22704 3.83407 8.43272 3.62903 8.68501 3.62903C8.93731 3.62903 9.14116 3.83407 9.14116 4.08266C9.14116 4.33306 8.93731 4.53629 8.68501 4.53629ZM13.2538 4.53629C13.0015 4.53629 12.7976 4.33306 12.7976 4.08266C12.7976 3.83407 13.0015 3.62903 13.2538 3.62903C13.5061 3.62903 13.7117 3.83407 13.7117 4.08266C13.7117 4.33306 13.5061 4.53629 13.2538 4.53629Z"   fill="#AAAAAA" >
    </path>
</svg>
