<?xml version="1.0" encoding="utf-8"?>
<!-- Generator: Adobe Illustrator 25.0.0, SVG Export Plug-In . SVG Version: 6.00 Build 0)  -->
<svg version="1.1" xmlns="http://www.w3.org/2000/svg" xmlns:xlink="http://www.w3.org/1999/xlink" x="0px" y="0px"
	 viewBox="0 0 25 25" style="enable-background:new 0 0 25 25;" xml:space="preserve">
<style type="text/css">
	.st0{fill:#AAAAAA;}
	.st1{fill:#4BDB6C;}
	.st2{fill:#FFFFFF;}
	.st3{fill:none;}
</style>
<g id="图层_1">
	<path class="st0" d="M21.3,17.4c-0.7,2-2.8,5.5-4.9,5.5c-1.4,0-1.9-0.8-3.5-0.8c-1.6,0-2.1,0.8-3.5,0.9c-2.3,0.1-5.7-5.1-5.7-9.6
		c0-4.1,2.9-6.2,5.4-6.2c1.4,0,2.6,0.9,3.5,0.9c0.8,0,2.4-1.1,4-1c0.7,0,2.6,0.3,3.9,2.1C17.2,11.3,17.8,15.7,21.3,17.4z M16.7,2
		c-2.5,0.1-4.5,2.7-4.2,4.8C14.8,7,17,4.5,16.7,2z"/>
</g>
<g id="图层_2">
	<ellipse class="st1" cx="19.5" cy="19.5" rx="5.5" ry="5.5"/>
	<path class="st2" d="M21.8,18c0.2-0.2,0.5-0.2,0.7,0c0.2,0.2,0.2,0.5,0,0.7l-3.6,3.1c-0.2,0.1-0.4,0.2-0.6,0l-1.6-1.1
		c-0.3-0.2-0.3-0.5-0.1-0.7c0.2-0.2,0.4-0.2,0.6-0.1l1,0.7c0.2,0.1,0.4,0.1,0.6,0L21.8,18z"/>
	<path class="st3" d="M16.9,20.5l1.6,1.1l-0.2,0.3l0.2-0.3l-0.2,0.3l0.2-0.3c0,0,0,0,0.1,0l0.3,0.3l-0.3-0.3l3.6-3.1l0,0
		c0,0,0-0.1,0-0.1l0,0l0,0c0,0-0.1,0-0.1,0l0,0L19.1,21l0,0l0,0c-0.2,0.1-0.3,0.2-0.5,0.2s-0.4,0-0.6-0.2l0.2-0.3L18,21.1l-1-0.7
		l0.2-0.3L17,20.4l0.2-0.3L17,20.4C17,20.3,16.9,20.3,16.9,20.5L16.9,20.5C16.9,20.4,16.9,20.4,16.9,20.5l-0.2,0.3L16.9,20.5z
		 M16.5,21.2L16.5,21.2c-0.5-0.3-0.5-1-0.1-1.4l0.3,0.3l-0.3-0.3c0.2-0.2,0.3-0.2,0.6-0.3c0.2,0,0.4,0,0.6,0.2l0,0l0,0l1,0.7l0,0
		c0,0,0,0,0.1,0l0.3,0.3l-0.3-0.3l0.3,0.3l-0.3-0.3l2.9-2.7l0.3,0.3l-0.3-0.3c0.2-0.2,0.4-0.2,0.6-0.2c0.2,0,0.4,0.1,0.6,0.3
		L22.4,18l0.3-0.3L22.4,18l0.3-0.3c0.4,0.4,0.4,1,0,1.3l-0.3-0.3l0.3,0.3l-3.6,3.1h0c-0.2,0.1-0.3,0.2-0.5,0.2c-0.2,0-0.4,0-0.5-0.2
		l0,0l0,0L16.5,21.2z"/>
</g>
</svg>
