<svg xmlns="http://www.w3.org/2000/svg" xmlns:xlink="http://www.w3.org/1999/xlink" width="21.06121826171875" height="20.903228759765625" viewBox="0 0 21.06121826171875 20.903228759765625" fill="none">
<path d="M19.3061 15.3351C18.6164 17.3209 16.5515 20.837 14.4243 20.8753C13.0132 20.9023 12.5595 20.0453 10.9466 20.0453C9.33451 20.0453 8.82992 20.8492 7.49604 20.9015C5.23898 20.9877 1.7551 15.8264 1.7551 11.3252C1.7551 7.19071 4.65804 5.14132 7.19417 5.10387C8.55437 5.07948 9.8391 6.01403 10.6684 6.01403C11.5012 6.01403 13.0615 4.89048 14.7016 5.0551C15.3879 5.08384 17.3158 5.32945 18.5532 7.12539C15.2703 9.25229 15.7819 13.7003 19.3061 15.3351ZM14.7236 0C12.2436 0.0992903 10.22 2.68171 10.5025 4.81732C12.7947 4.99413 14.9938 2.44393 14.7236 0Z"   fill="#AAAAAA" >
</path>
</svg>
