<?xml version="1.0" encoding="utf-8"?>
<!-- Generator: Adobe Illustrator 25.0.0, SVG Export Plug-In . SVG Version: 6.00 Build 0)  -->
<svg version="1.1" id="图层_1" xmlns="http://www.w3.org/2000/svg" xmlns:xlink="http://www.w3.org/1999/xlink" x="0px" y="0px"
	 viewBox="0 0 25 25" style="enable-background:new 0 0 25 25;" xml:space="preserve">
<style type="text/css">
	.st0{fill:#AAAAAA;}
</style>
<path class="st0" d="M21.3,17.4c-0.7,2-2.8,5.5-4.9,5.5c-1.4,0-1.9-0.8-3.5-0.8c-1.6,0-2.1,0.8-3.5,0.9c-2.3,0.1-5.7-5.1-5.7-9.6
	c0-4.1,2.9-6.2,5.4-6.2c1.4,0,2.6,0.9,3.5,0.9c0.8,0,2.4-1.1,4-1c0.7,0,2.6,0.3,3.9,2.1C17.2,11.3,17.8,15.7,21.3,17.4z M16.7,2
	c-2.5,0.1-4.5,2.7-4.2,4.8C14.8,7,17,4.5,16.7,2z"/>
</svg>
