<svg xmlns="http://www.w3.org/2000/svg" xmlns:xlink="http://www.w3.org/1999/xlink" width="20" height="20" viewBox="0 0 20 20" fill="none">
    <path d="M14.1667 20L5.83333 20L5.83333 19.1667C7.11083 18.8617 7.82167 17.8567 7.91417 16.6667L12.0858 16.6667C12.1783 17.8558 12.8892 18.8617 14.1667 19.1667L14.1667 20ZM19.1667 15.8333C19.3875 15.8333 19.6 15.7458 19.7558 15.5892C19.9125 15.4333 20 15.2208 20 15L20 0.833333C20 0.6125 19.9125 0.4 19.7558 0.244167C19.6 0.0875 19.3875 2.48353e-08 19.1667 2.48353e-08L0.833333 2.48353e-08C0.6125 2.48353e-08 0.4 0.0875 0.244167 0.244167C0.0875 0.4 2.48353e-08 0.6125 2.48353e-08 0.833333L2.48353e-08 15C2.48353e-08 15.2208 0.0875 15.4333 0.244167 15.5892C0.4 15.7458 0.6125 15.8333 0.833333 15.8333L19.1667 15.8333ZM10 12.9842C10.46 12.9842 10.8333 13.3575 10.8333 13.8175C10.8333 14.2775 10.46 14.6508 10 14.6508C9.54 14.6508 9.16667 14.2775 9.16667 13.8175C9.16667 13.3575 9.54 12.9842 10 12.9842ZM18.3333 1.66667L1.66667 1.66667L1.66667 11.6667L18.3333 11.6667L18.3333 1.66667Z" fill-rule="evenodd"  fill="#AAAAAA" >
    </path>
</svg>
