<svg xmlns="http://www.w3.org/2000/svg" xmlns:xlink="http://www.w3.org/1999/xlink" width="13.16326904296875" height="13.06451416015625" viewBox="0 0 13.16326904296875 13.06451416015625" fill="none">
    <ellipse cx="6.581634521484375" cy="6.532257080078125" rx="6.581634521484375" ry="6.532257080078125"   fill="#4BDB6C" >
    </ellipse>
    <path     fill="#FFFFFF"  d="M9.28267 4.72486C9.51055 4.51747 9.85206 4.51975 10.0727 4.73486C10.3167 4.97282 10.3102 5.37162 10.0527 5.59486L5.77266 9.30486C5.5839 9.46848 5.30899 9.48569 5.10266 9.34486L3.21266 8.05486C2.91157 7.84935 2.87166 7.41936 3.13266 7.16486C3.3308 6.97165 3.64557 6.94669 3.87266 7.10486L5.09266 7.95486C5.30332 8.10158 5.59281 8.08765 5.78266 7.91486L9.28267 4.72486Z">
    </path>
    <path   fill="rgba(255, 255, 255, 1)"  d="M3.49691 7.6399L5.38514 8.92873L5.10326 9.3417L5.38514 8.92873L5.10326 9.3417L5.38514 8.92873Q5.41702 8.95049 5.44618 8.92521L5.77366 9.30304L5.44618 8.92521L9.72455 5.21696L9.72455 5.21696C9.76096 5.18541 9.7626 5.12946 9.72811 5.09582L9.72811 5.09582L9.72811 5.09582Q9.67258 5.04168 9.61523 5.09388L9.61523 5.09388L6.11444 8.27988L6.11444 8.27988L6.11444 8.27988Q5.84262 8.52726 5.47586 8.55113Q5.1091 8.575 4.8075 8.36494L5.09327 7.95465L4.8075 8.36494L3.58437 7.51304L3.87013 7.10275L3.58437 7.51304L3.87013 7.10275L3.58437 7.51304Q3.53213 7.47666 3.48655 7.5211L3.48655 7.5211C3.45171 7.55508 3.45671 7.61246 3.49691 7.6399L3.21503 8.05287L3.49691 7.6399ZM2.93315 8.46584L2.93315 8.46584C2.37117 8.08226 2.30127 7.28015 2.78842 6.80513L3.13749 7.16312L2.78842 6.80513Q3.06579 6.53467 3.4519 6.50286Q3.838 6.47104 4.1559 6.69246L4.1559 6.69246L4.1559 6.69246L5.37903 7.54436L5.37903 7.54436Q5.41182 7.56719 5.44137 7.5403L5.7779 7.91009L5.44137 7.5403L5.7779 7.91009L5.44137 7.5403L8.94216 4.3543L9.2787 4.72409L8.94216 4.3543Q9.25982 4.06521 9.68927 4.0726Q10.1187 4.07999 10.4262 4.37985L10.0772 4.73784L10.4262 4.37985L10.0772 4.73784L10.4262 4.37985C10.8798 4.82213 10.8582 5.55769 10.3795 5.97263L10.052 5.59479L10.3795 5.97263L6.10115 9.68087L6.10114 9.68087Q5.83089 9.91512 5.47383 9.93571Q5.11678 9.9563 4.82139 9.75467L4.82139 9.75467L4.82139 9.75467L2.93315 8.46584Z">
    </path>
</svg>
