<?xml version="1.0" encoding="utf-8"?>
<!-- Generator: Adobe Illustrator 25.0.0, SVG Export Plug-In . SVG Version: 6.00 Build 0)  -->
<svg version="1.1" id="图层_1" xmlns="http://www.w3.org/2000/svg" xmlns:xlink="http://www.w3.org/1999/xlink" x="0px" y="0px"
	 viewBox="0 0 20 21" style="enable-background:new 0 0 20 21;" xml:space="preserve">
<style type="text/css">
	.st0{fill-rule:evenodd;clip-rule:evenodd;fill:#AAAAAA;}
</style>
<path class="st0" d="M14.2,21H5.8v-0.8c1.3-0.3,2-1.3,2.1-2.5h4.2c0.1,1.2,0.8,2.2,2.1,2.5V21z M19.2,16.9c0.2,0,0.4-0.1,0.6-0.2
	c0.2-0.2,0.2-0.4,0.2-0.6V1.9c0-0.2-0.1-0.4-0.2-0.6C19.6,1.1,19.4,1,19.2,1H0.8C0.6,1,0.4,1.1,0.2,1.3C0.1,1.4,0,1.7,0,1.9V16
	c0,0.2,0.1,0.4,0.2,0.6c0.2,0.2,0.4,0.2,0.6,0.2H19.2z M10,14c0.5,0,0.8,0.4,0.8,0.8s-0.4,0.8-0.8,0.8s-0.8-0.4-0.8-0.8
	S9.5,14,10,14z M18.3,2.7H1.7v10h16.7V2.7z"/>
</svg>
