<?xml version="1.0" encoding="utf-8"?>
<!-- Generator: Adobe Illustrator 25.0.0, SVG Export Plug-In . SVG Version: 6.00 Build 0)  -->
<svg version="1.1" xmlns="http://www.w3.org/2000/svg" xmlns:xlink="http://www.w3.org/1999/xlink" x="0px" y="0px"
	 viewBox="0 0 22 22" style="enable-background:new 0 0 22 22;" xml:space="preserve">
<style type="text/css">
	.st0{fill-rule:evenodd;clip-rule:evenodd;fill:#AAAAAA;}
	.st1{fill:#4BDB6C;}
	.st2{fill:#FFFFFF;}
	.st3{fill:none;}
</style>
<g id="图层_1">
	<path class="st0" d="M15.2,21H6.8v-0.8c1.3-0.3,2-1.3,2.1-2.5h4.2c0.1,1.2,0.8,2.2,2.1,2.5V21z M20.2,16.9c0.2,0,0.4-0.1,0.6-0.2
		c0.2-0.2,0.2-0.4,0.2-0.6V1.9c0-0.2-0.1-0.4-0.2-0.6C20.6,1.1,20.4,1,20.2,1H1.8C1.6,1,1.4,1.1,1.2,1.3C1.1,1.4,1,1.7,1,1.9V16
		c0,0.2,0.1,0.4,0.2,0.6c0.2,0.2,0.4,0.2,0.6,0.2H20.2z M11,14c0.5,0,0.8,0.4,0.8,0.8s-0.4,0.8-0.8,0.8s-0.8-0.4-0.8-0.8
		S10.5,14,11,14z M19.3,2.7H2.7v10h16.7V2.7z"/>
</g>
<g id="图层_2">
	<ellipse class="st1" cx="16.5" cy="16.6" rx="5.5" ry="5.5"/>
	<path class="st2" d="M18.8,15.1c0.2-0.2,0.5-0.2,0.7,0c0.2,0.2,0.2,0.5,0,0.7l-3.6,3.1c-0.2,0.1-0.4,0.2-0.6,0l-1.6-1.1
		c-0.3-0.2-0.3-0.5-0.1-0.7c0.2-0.2,0.4-0.2,0.6-0.1l1,0.7c0.2,0.1,0.4,0.1,0.6,0L18.8,15.1z"/>
	<path class="st3" d="M13.9,17.5l1.6,1.1l-0.2,0.3l0.2-0.3l-0.2,0.3l0.2-0.3c0,0,0,0,0.1,0l0.3,0.3l-0.3-0.3l3.6-3.1l0,0
		c0,0,0-0.1,0-0.1l0,0l0,0c0,0-0.1,0-0.1,0l0,0L16.1,18l0,0l0,0c-0.2,0.1-0.3,0.2-0.5,0.2s-0.4,0-0.6-0.2l0.2-0.3L15,18.1l-1-0.7
		l0.2-0.3L14,17.4l0.2-0.3L14,17.4C14,17.4,13.9,17.4,13.9,17.5L13.9,17.5C13.9,17.4,13.9,17.5,13.9,17.5l-0.2,0.3L13.9,17.5z
		 M13.5,18.2L13.5,18.2c-0.5-0.3-0.5-1-0.1-1.4l0.3,0.3l-0.3-0.3c0.2-0.2,0.3-0.2,0.6-0.3c0.2,0,0.4,0,0.6,0.2l0,0l0,0l1,0.7l0,0
		c0,0,0,0,0.1,0l0.3,0.3l-0.3-0.3l0.3,0.3l-0.3-0.3l2.9-2.7l0.3,0.3l-0.3-0.3c0.2-0.2,0.4-0.2,0.6-0.2c0.2,0,0.4,0.1,0.6,0.3
		l-0.3,0.3l0.3-0.3l-0.3,0.3l0.3-0.3c0.4,0.4,0.4,1,0,1.3l-0.3-0.3l0.3,0.3l-3.6,3.1h0c-0.2,0.1-0.3,0.2-0.5,0.2
		c-0.2,0-0.4,0-0.5-0.2l0,0l0,0L13.5,18.2z"/>
</g>
</svg>
