<?xml version="1.0" encoding="utf-8"?>
<!-- Generator: Adobe Illustrator 25.0.0, SVG Export Plug-In . SVG Version: 6.00 Build 0)  -->
<svg version="1.1" xmlns="http://www.w3.org/2000/svg" xmlns:xlink="http://www.w3.org/1999/xlink" x="0px" y="0px"
	 viewBox="0 0 25 25" style="enable-background:new 0 0 25 25;" xml:space="preserve">
<style type="text/css">
	.st0{fill:#AAAAAA;}
	.st1{fill:#4BDB6C;}
	.st2{fill:none;}
	.st3{fill:#FFFFFF;}
</style>
<g id="图层_1">
	<path class="st0" d="M7,8.9l0,8.6c0,0.8,0.6,1.4,1.4,1.4h0.4v3.2c0,0.7,0.6,1.3,1.4,1.3c0.7,0,1.4-0.6,1.4-1.3v-3.2h1.8v3.2
		c0,0.7,0.6,1.3,1.4,1.3c0.7,0,1.4-0.6,1.4-1.3v-3.2l0.4,0c0.8,0,1.4-0.6,1.4-1.4V8.9H7z M21.6,10.2c0-0.7-0.6-1.3-1.4-1.3
		c-0.7,0-1.4,0.6-1.4,1.3v5.5c0,0.7,0.6,1.3,1.4,1.3c0.7,0,1.4-0.6,1.4-1.3V10.2z M6.1,10.2c0-0.7-0.6-1.3-1.4-1.3
		c-0.7,0-1.4,0.6-1.4,1.3v5.5C3.4,16.5,4,17,4.7,17c0.7,0,1.4-0.6,1.4-1.3V10.2z M15.2,3.6l0.9-1.7c0.1-0.1,0-0.3-0.1-0.3
		c-0.1,0-0.1,0-0.1,0.1l-0.9,1.7c-1.4-0.7-3.2-0.7-4.8,0L9.2,1.7c0-0.1-0.1-0.1-0.1-0.1C9,1.6,8.9,1.8,8.9,1.9l0.9,1.7
		C8.1,4.5,7,5.9,7,8h11C18,5.9,16.9,4.5,15.2,3.6z M10.2,6.1c-0.3,0-0.5-0.2-0.5-0.5c0-0.2,0.2-0.5,0.5-0.5c0.3,0,0.5,0.2,0.5,0.5
		C10.7,5.9,10.5,6.1,10.2,6.1z M14.8,6.1c-0.3,0-0.5-0.2-0.5-0.5c0-0.2,0.2-0.5,0.5-0.5c0.3,0,0.5,0.2,0.5,0.5
		C15.2,5.9,15,6.1,14.8,6.1z"/>
</g>
<g id="图层_2">
	<ellipse class="st1" cx="18.4" cy="18.7" rx="5.5" ry="5.5"/>
	<path class="st2" d="M15.8,19.6l1.6,1.1L17.1,21l0.2-0.3L17.1,21l0.2-0.3c0,0,0,0,0.1,0l0.3,0.3l-0.3-0.3l3.6-3.1l0,0
		c0,0,0-0.1,0-0.1l0,0l0,0c0,0-0.1,0-0.1,0l0,0L18,20.1l0,0l0,0c-0.2,0.1-0.3,0.2-0.5,0.2c-0.2,0-0.4,0-0.6-0.2l0.2-0.3l-0.2,0.3
		l-1-0.7l0.2-0.3l-0.2,0.3l0.2-0.3l-0.2,0.3C15.8,19.5,15.8,19.5,15.8,19.6L15.8,19.6C15.8,19.5,15.8,19.6,15.8,19.6L15.6,20
		L15.8,19.6z M15.3,20.3L15.3,20.3c-0.5-0.3-0.5-1-0.1-1.4l0.3,0.3l-0.3-0.3c0.2-0.2,0.3-0.2,0.6-0.3c0.2,0,0.4,0,0.6,0.2l0,0l0,0
		l1,0.7l0,0c0,0,0,0,0.1,0l0.3,0.3l-0.3-0.3l0.3,0.3l-0.3-0.3l2.9-2.7l0.3,0.3l-0.3-0.3c0.2-0.2,0.4-0.2,0.6-0.2
		c0.2,0,0.4,0.1,0.6,0.3l-0.3,0.3l0.3-0.3l-0.3,0.3l0.3-0.3c0.4,0.4,0.4,1,0,1.3l-0.3-0.3l0.3,0.3L18,21.3h0
		c-0.2,0.1-0.3,0.2-0.5,0.2c-0.2,0-0.4,0-0.5-0.2l0,0l0,0L15.3,20.3z"/>
	<path class="st3" d="M20.6,16.8c0.2-0.2,0.5-0.2,0.7,0c0.2,0.2,0.2,0.5,0,0.7l-3.6,3.1c-0.2,0.1-0.4,0.2-0.6,0l-1.6-1.1
		c-0.3-0.2-0.3-0.5-0.1-0.7c0.2-0.2,0.4-0.2,0.6-0.1l1,0.7c0.2,0.1,0.4,0.1,0.6,0L20.6,16.8z"/>
</g>
</svg>
