<svg xmlns="http://www.w3.org/2000/svg" xmlns:xlink="http://www.w3.org/1999/xlink" width="15.746932983398438" height="14.859947204589844" viewBox="0 0 15.746932983398438 14.859947204589844" fill="none">
    <path   fill="rgba(187, 187, 187, 1)"  d="M8.20523 1.94325L1.76258 5.48714L1.76258 5.48714C2.08938 5.30737 2.07608 4.83335 1.73971 4.6722L1.30765 5.57404L1.73971 4.6722L8.18284 7.75903L7.75077 8.66088L8.18284 7.75903L7.75077 8.66088L8.18284 7.75903Q7.98128 7.66247 7.78108 7.76181L8.22557 8.65759L7.78108 7.76181L14.0015 4.67522L14.446 5.571L14.0015 4.67522C13.6728 4.83834 13.6595 5.30238 13.9784 5.48404L13.9784 5.48404L7.75745 1.9399L7.75745 1.9399L7.75745 1.9399Q7.9804 2.06692 8.20523 1.94325L7.72327 1.06706L8.20523 1.94325ZM7.2413 0.19087L7.2413 0.19087Q7.59369 -0.00296527 7.99586 4.23193e-05Q8.39803 0.00304997 8.74747 0.202134L8.25246 1.07102L8.74747 0.202134L8.25246 1.07102L8.74747 0.202134L14.9684 3.74627L14.4734 4.61515L14.9684 3.74627C16.0409 4.35729 15.9962 5.91813 14.8905 6.46679L14.8905 6.46679L8.67006 9.55338L8.67006 9.55338Q8.3513 9.71155 7.99546 9.71401Q7.63963 9.71646 7.31871 9.56272L7.31871 9.56272L7.31871 9.56272L0.875581 6.47588L0.875581 6.47588C-0.255836 5.93383 -0.300582 4.33941 0.798653 3.73476L1.28062 4.61095L0.798653 3.73476L7.2413 0.19087Z">
    </path>
    <path   fill="rgba(187, 187, 187, 1)"  d="M8.20523 7.08916L1.76258 10.633L1.76258 10.633C2.08938 10.4533 2.07608 9.97925 1.73971 9.8181L1.30765 10.7199L1.73971 9.8181L8.18284 12.9049L7.75077 13.8068L8.18284 12.9049L7.75077 13.8068L8.18284 12.9049Q7.98128 12.8084 7.78108 12.9077L8.22557 13.8035L7.78108 12.9077L14.0015 9.82113L14.446 10.7169L14.0015 9.82113C13.6728 9.98424 13.6595 10.4483 13.9784 10.6299L13.9784 10.6299L7.75745 7.08581L7.75745 7.08581L7.75745 7.08581Q7.9804 7.21283 8.20523 7.08916L7.72327 6.21297L8.20523 7.08916ZM7.2413 5.33677L7.2413 5.33677Q7.59369 5.14294 7.99586 5.14595Q8.39803 5.14895 8.74747 5.34804L8.25246 6.21692L8.74747 5.34804L8.25246 6.21692L8.74747 5.34804L14.9684 8.89217L14.4734 9.76106L14.9684 8.89217C16.0409 9.50319 15.9962 11.064 14.8905 11.6127L14.8905 11.6127L8.67006 14.6993L8.67006 14.6993Q8.3513 14.8575 7.99546 14.8599Q7.63963 14.8624 7.31871 14.7086L7.31871 14.7086L7.31871 14.7086L0.875581 11.6218L0.875581 11.6218C-0.255836 11.0797 -0.300582 9.48531 0.798653 8.88066L1.28062 9.75685L0.798653 8.88066L7.2413 5.33677Z">
    </path>
</svg>
