<svg xmlns="http://www.w3.org/2000/svg" xmlns:xlink="http://www.w3.org/1999/xlink" width="36" height="36" viewBox="0 0 36 36" fill="none">
<circle cx="18" cy="18" r="18"   fill="#D43030" >
</circle>
<path     fill="#FFFFFF"  d="M27.16 9.47C26.2311 8.64457 24.8138 8.69636 23.94 9.58L9.54001 24.14C8.5978 25.0929 8.64829 26.6399 9.65001 27.53C10.5789 28.3554 11.9962 28.3036 12.87 27.42L27.27 12.86C28.2122 11.9071 28.1617 10.3601 27.16 9.47Z">
</path>
<path     fill="#FFFFFF"  d="M9.65 9.47C10.5789 8.64457 11.9962 8.69636 12.87 9.58L27.27 24.14C28.2122 25.0929 28.1617 26.6399 27.16 27.53C26.2311 28.3554 24.8137 28.3036 23.94 27.42L9.54 12.86C8.59779 11.9071 8.64828 10.3601 9.65 9.47Z">
</path>
</svg>
