<svg xmlns="http://www.w3.org/2000/svg" xmlns:xlink="http://www.w3.org/1999/xlink" width="9.586174011230469" height="11.841346740722656" viewBox="0 0 9.586174011230469 11.841346740722656" fill="none">
    <path d="M1.19488 0.569609L8.85459 5.47561C9.16336 5.67339 9.16336 6.16795 8.85459 6.36573L1.19488 11.2717C0.886109 11.4695 0.5 11.2222 0.5 10.8267L0.5 1.01467C0.5 0.619109 0.885911 0.371829 1.19488 0.569609Z"   fill="#000000" >
    </path>
    <path d="M8.85459 5.47561L1.19488 0.569614C1.14867 0.540134 1.10088 0.523414 1.05289 0.512634L8.45797 5.25561C8.76674 5.45339 8.76674 5.94795 8.45797 6.14573L0.798258 11.0517C0.729048 11.0959 0.656268 11.1151 0.58448 11.1179C0.714571 11.3243 0.973366 11.4134 1.19488 11.2717L8.85459 6.36573C9.16336 6.16795 9.16336 5.67339 8.85459 5.47561Z"   fill="#000000" >
    </path>
    <path d="M1.19488 0.569609L8.85459 5.47561C9.16336 5.67339 9.16336 6.16795 8.85459 6.36573L1.19488 11.2717C0.886109 11.4695 0.5 11.2222 0.5 10.8267L0.5 1.01467C0.5 0.619109 0.885911 0.371829 1.19488 0.569609Z" stroke="rgba(255, 255, 255, 1.00)" stroke-width="1"      fill="#FFFFFF" >
    </path>
</svg>
